<svg id="Layer_1" data-name="Layer 1" xmlns="http://www.w3.org/2000/svg" viewBox="0 0 130.68 80.64"><defs><style>.cls-1{fill:#f58731;}</style></defs><title>No More Courses</title><path class="cls-1" d="M16.31,69.14a2.08,2.08,0,0,1-2.08,2.08,2,2,0,0,1-1.45-.61,1.54,1.54,0,0,1-.12-.13v.76l-.61-.08V65.44l.61-.16v2.51s.11-.13.15-.16a1.89,1.89,0,0,1,1.42-.58,2.08,2.08,0,0,1,2.08,2.09m-.59,0a1.49,1.49,0,1,0-1.49,1.48,1.49,1.49,0,0,0,1.49-1.48"/><path class="cls-1" d="M21.22,68.57l-.52.19-.33.12-2.44.91a.05.05,0,0,0,0,0l0,0a1.49,1.49,0,0,0,1.85.74,2.08,2.08,0,0,0,.48-.28,1.58,1.58,0,0,0,.44-.69l.58.16c0,.09-.07.19-.11.28A2.07,2.07,0,0,1,20,71.09a2.34,2.34,0,0,1-.69.13h0a2.12,2.12,0,0,1-1.48-.62A2.1,2.1,0,0,1,19.27,67h.23a2.15,2.15,0,0,1,1.26.61,2.12,2.12,0,0,1,.52.86v0Zm-.77-.36a1.47,1.47,0,0,0-1.71-.48,1.5,1.5,0,0,0-1,1.46v0Z"/><path class="cls-1" d="M26.39,69.71a2,2,0,0,1-.52.88,2.06,2.06,0,0,1-1.48.61,2.08,2.08,0,0,1-2.07-2.07,2.06,2.06,0,0,1,.61-1.48A2.1,2.1,0,0,1,24.39,67a2.15,2.15,0,0,1,1.48.61,2.09,2.09,0,0,1,.51.87l-.57.16a1.49,1.49,0,1,0,0,.88Z"/><path class="cls-1" d="M31.73,67.26v3.93l-.61.08v-.79l-.11.13a2.13,2.13,0,0,1-1.49.61A2.11,2.11,0,0,1,28,70.61a2.08,2.08,0,0,1-.61-1.48A2.08,2.08,0,0,1,29.52,67a2.09,2.09,0,0,1,1.49.61l.11.13V67.1ZM31,69.13a1.49,1.49,0,1,0-1.49,1.49A1.49,1.49,0,0,0,31,69.13"/><path class="cls-1" d="M36.31,67.11l.61.08V71l-.54.08v-.45a2.83,2.83,0,0,1-1.39.57,1.62,1.62,0,0,1-1.31-.54,2,2,0,0,1-.61-1.46v-2l.61-.08v2.16a1.32,1.32,0,1,0,2.63,0Z"/><path class="cls-1" d="M41.4,70.06h0a1,1,0,0,1-.57.9,2.16,2.16,0,0,1-1.08.26A2.09,2.09,0,0,1,38.68,71a1.05,1.05,0,0,1-.57-.76l.57-.15a.61.61,0,0,0,.29.4,1.66,1.66,0,0,0,.78.18,1.71,1.71,0,0,0,.79-.18.5.5,0,0,0,.28-.37c0-.48-.4-.6-1.24-.75a3.85,3.85,0,0,1-1-.27.86.86,0,0,1-.51-.84,1.07,1.07,0,0,1,.53-.89,2.22,2.22,0,0,1,1.09-.25,2.18,2.18,0,0,1,1.08.25,1,1,0,0,1,.55.76l-.57.16a.63.63,0,0,0-.28-.41,1.53,1.53,0,0,0-.78-.18,1.59,1.59,0,0,0-.79.18.44.44,0,0,0-.28.38h0a.3.3,0,0,0,.22.3,3.41,3.41,0,0,0,.8.21,3.6,3.6,0,0,1,1.1.32,1,1,0,0,1,.44.39,1,1,0,0,1,.18.61"/><path class="cls-1" d="M46.55,68.57l-.52.19-.33.12-2.44.91a.05.05,0,0,0,0,0l0,0a1.49,1.49,0,0,0,1.85.74,1.89,1.89,0,0,0,.48-.28,1.58,1.58,0,0,0,.44-.69l.58.16c0,.09-.07.19-.11.28a2.07,2.07,0,0,1-1.18,1.09,2.34,2.34,0,0,1-.69.13h0a2.12,2.12,0,0,1-1.48-.62A2.1,2.1,0,0,1,44.61,67h.23a2.15,2.15,0,0,1,1.25.61,2.12,2.12,0,0,1,.52.86v0Zm-.77-.36a1.5,1.5,0,0,0-2.68,1v0Z"/><polygon class="cls-1" points="50.89 71.31 50.28 71.24 50.28 65.44 50.89 65.28 50.89 71.31"/><path class="cls-1" d="M56.05,68.57l-.52.19-.34.12-2.44.91s0,0,0,0v0a1.51,1.51,0,0,0,1.86.74,2,2,0,0,0,.47-.28,1.51,1.51,0,0,0,.45-.69l.58.16L56,70a2,2,0,0,1-1.18,1.09,2.34,2.34,0,0,1-.69.13h0a2.09,2.09,0,0,1-1.47-.62A2.1,2.1,0,0,1,54.1,67h.23a2.12,2.12,0,0,1,1.25.61,2.14,2.14,0,0,1,.53.86v0Zm-.78-.36a1.5,1.5,0,0,0-2.68,1v0Z"/><path class="cls-1" d="M61.42,67.26v3.93l-.61.08v-.79l-.12.13a2.09,2.09,0,0,1-3.57-1.48,2.09,2.09,0,0,1,3.57-1.48l.12.13V67.1Zm-.72,1.87a1.49,1.49,0,1,0-1.49,1.49,1.49,1.49,0,0,0,1.49-1.49"/><path class="cls-1" d="M65.32,67.08l.13.61h-.29a1.32,1.32,0,0,0-1.35,1.38v2.22l-.62-.09v-4l.62-.17v.6a2.61,2.61,0,0,1,1.35-.51h.16"/><path class="cls-1" d="M66.77,71.28l-.61-.07v-4l.61-.16v.59a2.7,2.7,0,0,1,1.34-.51,1.66,1.66,0,0,1,1.33.55,2.09,2.09,0,0,1,.62,1.48v2.06l-.62.07V69.1a1.34,1.34,0,1,0-2.67,0Z"/><path class="cls-1" d="M71.66,66.21a.41.41,0,0,1-.41-.41.41.41,0,0,1,.41-.41.42.42,0,0,1,.42.41.41.41,0,0,1-.42.41m-.3,1.19.59.14V71.1l-.58.13V67.4Z"/><path class="cls-1" d="M74.31,71.28l-.61-.07v-4l.61-.16v.59a2.7,2.7,0,0,1,1.34-.51,1.68,1.68,0,0,1,1.33.55,2.09,2.09,0,0,1,.62,1.48v2.06l-.62.07V69.1a1.34,1.34,0,1,0-2.67,0Z"/><path class="cls-1" d="M82.93,69.08a1.85,1.85,0,0,1-.12.67v1.57a1.47,1.47,0,0,1-.61,1.23,2,2,0,0,1-1.26.42,1.93,1.93,0,0,1-1-.28,1,1,0,0,1-.5-.74l.57-.16a.56.56,0,0,0,.26.4,1.28,1.28,0,0,0,.7.18,1.4,1.4,0,0,0,.88-.28.9.9,0,0,0,.4-.81h0v-.65a2.07,2.07,0,0,1-2.84-3A2.08,2.08,0,0,1,80.86,67a2.08,2.08,0,0,1,2.07,2.07m-.6,0a1.48,1.48,0,1,0-1.47,1.48,1.47,1.47,0,0,0,1.47-1.48"/><path class="cls-1" d="M87.44,71.3l-.61-.08V65.43l.61-.15v2.36a2.7,2.7,0,0,1,1.34-.51,1.69,1.69,0,0,1,1.34.55,2.05,2.05,0,0,1,.61,1.49v2l-.62.08V69.1a1.34,1.34,0,1,0-2.67,0Z"/><path class="cls-1" d="M96.08,67.26v3.93l-.6.08v-.79l-.12.13a2.1,2.1,0,0,1-3,0,2.08,2.08,0,0,1-.61-1.48,2.09,2.09,0,0,1,3.57-1.48l.12.13V67.1Zm-.71,1.87a1.49,1.49,0,1,0-1.49,1.49,1.49,1.49,0,0,0,1.49-1.49"/><path class="cls-1" d="M101.14,70.6a2.06,2.06,0,0,1-1.47.61,1.92,1.92,0,0,1-1.42-.58l-.15-.15V73l-.6-.16V67.1l.6-.08v.76l.11-.12a2.06,2.06,0,0,1,2.93,0,2.08,2.08,0,0,1,0,2.94m-1.47-2.95a1.48,1.48,0,1,0,1.48,1.48,1.48,1.48,0,0,0-1.48-1.48"/><path class="cls-1" d="M106.34,70.6a2.06,2.06,0,0,1-1.47.61,1.92,1.92,0,0,1-1.42-.58l-.15-.15V73l-.6-.16V67.1l.6-.08v.76l.11-.12A2.08,2.08,0,0,1,107,69.13a2.08,2.08,0,0,1-.61,1.47m-1.47-2.95a1.48,1.48,0,1,0,1.48,1.48,1.48,1.48,0,0,0-1.48-1.48"/><path class="cls-1" d="M111.78,68.57l-.52.19-.33.12-2.44.91a.05.05,0,0,0,0,0l0,0a1.49,1.49,0,0,0,1.85.74,2.08,2.08,0,0,0,.48-.28,1.58,1.58,0,0,0,.44-.69l.58.16c0,.09-.07.19-.11.28a2.07,2.07,0,0,1-1.18,1.09,2.34,2.34,0,0,1-.69.13h0a2.12,2.12,0,0,1-1.48-.62A2.1,2.1,0,0,1,109.83,67h.23a2.15,2.15,0,0,1,1.26.61,2.12,2.12,0,0,1,.52.86v0Zm-.77-.36a1.56,1.56,0,0,0-.87-.55,1.52,1.52,0,0,0-.84.07,1.49,1.49,0,0,0-1,1.46v0Z"/><path class="cls-1" d="M113.57,71.28l-.61-.07v-4l.61-.16v.59a2.7,2.7,0,0,1,1.34-.51,1.68,1.68,0,0,1,1.33.55,2.13,2.13,0,0,1,.62,1.48v2.06l-.62.07V69.1a1.34,1.34,0,1,0-2.67,0Z"/><path class="cls-1" d="M121.42,70.06h0a1,1,0,0,1-.57.9,2.37,2.37,0,0,1-2.16,0,1.06,1.06,0,0,1-.56-.76l.56-.15a.65.65,0,0,0,.3.4,1.66,1.66,0,0,0,.78.18,1.71,1.71,0,0,0,.79-.18.47.47,0,0,0,.27-.37c0-.48-.39-.6-1.23-.75a3.85,3.85,0,0,1-1-.27.83.83,0,0,1-.36-.3.91.91,0,0,1-.16-.54,1.08,1.08,0,0,1,.54-.89,2.48,2.48,0,0,1,2.17,0,1.08,1.08,0,0,1,.55.76l-.58.16a.6.6,0,0,0-.27-.41,1.53,1.53,0,0,0-.78-.18,1.57,1.57,0,0,0-.79.18.44.44,0,0,0-.28.38h0a.3.3,0,0,0,.22.3,3.41,3.41,0,0,0,.8.21,3.6,3.6,0,0,1,1.1.32,1,1,0,0,1,.44.39,1,1,0,0,1,.18.61"/><path d="M39.1,45a.85.85,0,0,1-.6-.24.8.8,0,0,1-.27-.6V37.08a4.83,4.83,0,0,1,.41-2,5.16,5.16,0,0,1,2.73-2.73,4.83,4.83,0,0,1,2-.41,5.05,5.05,0,0,1,2.42.61,5.29,5.29,0,0,1,1.84,1.68A5,5,0,0,1,51.83,32a4.86,4.86,0,0,1,2,.41,5.16,5.16,0,0,1,2.73,2.73,4.82,4.82,0,0,1,.4,2v7.07a.82.82,0,0,1-.84.84.89.89,0,0,1-.61-.24.83.83,0,0,1-.26-.6V37.08A3.32,3.32,0,0,0,53.15,34a3.36,3.36,0,0,0-2.64,0,3.16,3.16,0,0,0-1.07.72,3.79,3.79,0,0,0-.73,1.09,3.25,3.25,0,0,0-.27,1.32v7.07a.82.82,0,0,1-.25.6.81.81,0,0,1-.59.24.87.87,0,0,1-.61-.24.83.83,0,0,1-.26-.6V37.08a3.38,3.38,0,0,0-1-2.41,3.45,3.45,0,0,0-2.4-1A3.25,3.25,0,0,0,42,34a3.06,3.06,0,0,0-1.07.72,3.42,3.42,0,0,0-.73,1.09A3.25,3.25,0,0,0,40,37.08v7.07a.86.86,0,0,1-.25.6.83.83,0,0,1-.6.24"/><path class="cls-1" d="M65.68,45a6.28,6.28,0,0,1-2.53-.51,6.5,6.5,0,0,1-2.07-1.39A6.4,6.4,0,0,1,59.67,41a6.51,6.51,0,0,1,0-5.05,6.66,6.66,0,0,1,3.48-3.5A6.28,6.28,0,0,1,65.68,32a6.39,6.39,0,0,1,2.53.51A6.64,6.64,0,0,1,71.7,36a6.51,6.51,0,0,1,0,5.05,6.57,6.57,0,0,1-6,4m0-11.31a4.82,4.82,0,0,0-4.43,6.69,4.81,4.81,0,0,0,2.56,2.56,4.79,4.79,0,0,0,3.74,0,4.78,4.78,0,0,0,2.57-2.56,4.79,4.79,0,0,0,0-3.74,4.79,4.79,0,0,0-1-1.54,4.84,4.84,0,0,0-1.54-1,4.74,4.74,0,0,0-1.87-.38"/><path class="cls-1" d="M65.68,44.13a5.65,5.65,0,1,1,5.66-5.63,5.71,5.71,0,0,1-5.66,5.63.87.87,0,0,0,0,1.73A7.55,7.55,0,0,0,72.6,41.1a7.39,7.39,0,0,0-10.69-9,7.37,7.37,0,0,0,3.77,13.71.87.87,0,0,0,0-1.73"/><path class="cls-1" d="M65.68,32.82a5.68,5.68,0,1,0,5.68,5.68,5.76,5.76,0,0,0-5.68-5.68c-1.11,0-1.11,1.69,0,1.73a4,4,0,1,1-3.94,4,4,4,0,0,1,3.94-4c1.11,0,1.12-1.77,0-1.73"/><path d="M75.54,45a.87.87,0,0,1-.61-.24.83.83,0,0,1-.26-.6V37.08a4.82,4.82,0,0,1,.4-2,5.25,5.25,0,0,1,2.73-2.73,4.9,4.9,0,0,1,2-.41h1.42a.88.88,0,0,1,.61.25.81.81,0,0,1,.26.6.79.79,0,0,1-.26.59.88.88,0,0,1-.61.25H79.77a3.32,3.32,0,0,0-1.32.27,3.53,3.53,0,0,0-1.07.74,3.79,3.79,0,0,0-.73,1.09,3.25,3.25,0,0,0-.27,1.32v7.07a.82.82,0,0,1-.25.6.81.81,0,0,1-.59.24"/><path d="M95.43,35.66a.17.17,0,0,0,0,.08.2.2,0,0,1,0,.09.24.24,0,0,1,0,.15.22.22,0,0,1,0,.14v0a.17.17,0,0,0-.06.12l0,0a.09.09,0,0,0,0,.06s0,0,0,.06a.14.14,0,0,1-.06.07l-.06.05-.12,0a0,0,0,0,1,0,0l0,0-9.77,3.71a4,4,0,0,0,.73,1.22,4.9,4.9,0,0,0,.93.81,4.65,4.65,0,0,0,.89.48,6.27,6.27,0,0,0,.61.22,4.42,4.42,0,0,0,1.36.2,5.45,5.45,0,0,0,.9-.09,3.86,3.86,0,0,0,1.07-.33,4.6,4.6,0,0,0,1.1-.72,5,5,0,0,0,1-1.27.78.78,0,0,1,.75-.43.65.65,0,0,1,.41.12.77.77,0,0,1,.4.5.9.9,0,0,1-.08.66,6.61,6.61,0,0,1-2.38,2.43,6.2,6.2,0,0,1-3.16.84,6.79,6.79,0,0,1-1.86-.26,6.25,6.25,0,0,1-3.51-2.35,6.77,6.77,0,0,1,.18-8.06,6.56,6.56,0,0,1,3.59-2.2l.8-.15a7,7,0,0,1,.8,0,6.24,6.24,0,0,1,3.32.92,6.62,6.62,0,0,1,2.36,2.58v.06a.09.09,0,0,1,0,.06.17.17,0,0,1,0,.12m-2.12-.24a4.08,4.08,0,0,0-.94-.92,4.69,4.69,0,0,0-1-.54,4,4,0,0,0-.94-.25c-.3,0-.57-.05-.8-.05l-.58,0a4.51,4.51,0,0,0-.55.09,5.24,5.24,0,0,0-1.29.49,4.33,4.33,0,0,0-1.17.92,4.75,4.75,0,0,0-1.25,3.17v.32Z"/><path d="M26,50.89a4.65,4.65,0,0,0-2.07,1.75,4.86,4.86,0,0,0,0,5.25A4.65,4.65,0,0,0,26,59.64a4.81,4.81,0,0,0,2,.44,4.61,4.61,0,0,0,3.16-1.22,1.07,1.07,0,0,1,.58-.2.86.86,0,0,1,.64.29.81.81,0,0,1,.2.62.82.82,0,0,1-.29.59,7,7,0,0,1-2,1.22,6.48,6.48,0,0,1-5-.17,6.33,6.33,0,0,1-2.82-2.41,6.73,6.73,0,0,1,0-7.09,6.42,6.42,0,0,1,2.82-2.39A6.75,6.75,0,0,1,28,48.74a6.62,6.62,0,0,1,2.26.41,7,7,0,0,1,2,1.22.91.91,0,0,1,.29.61.84.84,0,0,1-.2.6.86.86,0,0,1-.64.29.78.78,0,0,1-.58-.23,4.84,4.84,0,0,0-1.48-.88A4.59,4.59,0,0,0,28,50.45a4.81,4.81,0,0,0-2,.44"/><path d="M40.7,61.79a6.33,6.33,0,0,1-2.54-.51,6.79,6.79,0,0,1-2.07-1.39,6.53,6.53,0,0,1-1.41-7.12,6.64,6.64,0,0,1,1.41-2.09,6.82,6.82,0,0,1,2.07-1.4,6.53,6.53,0,0,1,5.06,0,6.79,6.79,0,0,1,2.09,1.4,6.64,6.64,0,0,1,1.41,2.09,6.55,6.55,0,0,1,.5,2.52,6.31,6.31,0,0,1-1.91,4.6,6.76,6.76,0,0,1-2.09,1.39,6.31,6.31,0,0,1-2.52.51m0-11.31a4.74,4.74,0,0,0-1.87.38,4.79,4.79,0,0,0-1.54,1,4.91,4.91,0,0,0-1,1.53,4.94,4.94,0,0,0,0,3.75,4.91,4.91,0,0,0,1,1.53,4.79,4.79,0,0,0,1.54,1,4.79,4.79,0,0,0,3.74,0,4.79,4.79,0,0,0,1.54-1,5.09,5.09,0,0,0,1-1.53,4.94,4.94,0,0,0,0-3.75,5.09,5.09,0,0,0-1-1.53,4.79,4.79,0,0,0-1.54-1,4.74,4.74,0,0,0-1.87-.38"/><path d="M61.08,48.74a.86.86,0,0,1,.6.25.81.81,0,0,1,.24.59v5.69a6.25,6.25,0,0,1-.51,2.53A6.41,6.41,0,0,1,60,59.88a6.79,6.79,0,0,1-2.09,1.4,6.53,6.53,0,0,1-5.06,0,6.53,6.53,0,0,1-3.45-3.48,6.25,6.25,0,0,1-.51-2.53V49.58a.85.85,0,0,1,1.69,0v5.69a4.81,4.81,0,0,0,9.62,0V49.58a.79.79,0,0,1,.26-.59.9.9,0,0,1,.61-.25"/><path d="M64.88,61.79a.84.84,0,0,1-.61-.25A.79.79,0,0,1,64,61V53.87a4.89,4.89,0,0,1,.4-2,5.28,5.28,0,0,1,2.73-2.72,4.9,4.9,0,0,1,2-.41h1.42a.84.84,0,0,1,.61.25.79.79,0,0,1,.26.59.81.81,0,0,1-.26.6.87.87,0,0,1-.61.24H69.11a3.33,3.33,0,0,0-1.32.28,3.36,3.36,0,0,0-1.07.74A3.79,3.79,0,0,0,66,52.56a3.23,3.23,0,0,0-.27,1.31V61a.85.85,0,0,1-.84.84"/><path d="M75.31,51.05a1.89,1.89,0,0,0-.58,1.4,1.91,1.91,0,0,0,.58,1.41,1.94,1.94,0,0,0,1.4.57h3.68a3.44,3.44,0,0,1,1.42.29,3.89,3.89,0,0,1,1.17.79,3.68,3.68,0,0,1,.8,1.18,3.57,3.57,0,0,1,.29,1.42,3.65,3.65,0,0,1-.29,1.43,3.47,3.47,0,0,1-.8,1.18,4.06,4.06,0,0,1-1.17.78,3.61,3.61,0,0,1-1.42.29h-6.5A.85.85,0,0,1,73,61a.86.86,0,0,1,.25-.6.84.84,0,0,1,.62-.24h6.5a2,2,0,0,0,2-2,2,2,0,0,0-2-2H76.71a3.67,3.67,0,0,1-1.44-.29,3.71,3.71,0,0,1-2-2A3.67,3.67,0,0,1,73,52.45,3.61,3.61,0,0,1,73.31,51a4.09,4.09,0,0,1,.79-1.17,3.58,3.58,0,0,1,1.17-.8,3.67,3.67,0,0,1,1.44-.29H83.2a.85.85,0,0,1,.62.25.78.78,0,0,1,.25.59.84.84,0,0,1-.87.87H76.71a1.94,1.94,0,0,0-1.4.57"/><path d="M98,52.45a.2.2,0,0,0,0,.09.37.37,0,0,1,0,.23.4.4,0,0,1,0,.15v0a.15.15,0,0,0-.06.11l0,0a.09.09,0,0,0,0,.06s0,0-.06.06a.14.14,0,0,1-.06.07.1.1,0,0,0,0,0l-.12.06a0,0,0,0,1,0,0l-.06,0-9.77,3.71a4.18,4.18,0,0,0,.74,1.22,4.9,4.9,0,0,0,.93.81,5.23,5.23,0,0,0,.88.48c.27.1.48.18.61.21a4.19,4.19,0,0,0,1.37.21,5.24,5.24,0,0,0,.89-.09,4.75,4.75,0,0,0,1.08-.33,4.87,4.87,0,0,0,1.1-.73,5.07,5.07,0,0,0,1-1.26.8.8,0,0,1,.76-.43.66.66,0,0,1,.4.11.8.8,0,0,1,.41.51.83.83,0,0,1-.09.65A6.49,6.49,0,0,1,95.43,61a6.18,6.18,0,0,1-3.16.84,6.78,6.78,0,0,1-1.85-.26,6.25,6.25,0,0,1-3.51-2.35,6.5,6.5,0,0,1,3.77-10.26l.8-.15a5.16,5.16,0,0,1,.79-.06,6.14,6.14,0,0,1,3.32.93A6.57,6.57,0,0,1,98,52.22v.06a.09.09,0,0,1,0,.06.27.27,0,0,1,0,.11m-2.11-.23a4.34,4.34,0,0,0-.94-.93,4.87,4.87,0,0,0-1-.53,4.06,4.06,0,0,0-.95-.25,6,6,0,0,0-.79-.06,5.49,5.49,0,0,0-.58,0,4.21,4.21,0,0,0-.55.09,5.24,5.24,0,0,0-1.29.49,4.33,4.33,0,0,0-1.18.92,4.63,4.63,0,0,0-1.24,3.17v.32Z"/><path d="M102.07,51.05a1.89,1.89,0,0,0-.58,1.4,2,2,0,0,0,2,2h3.68a3.44,3.44,0,0,1,1.42.29,3.89,3.89,0,0,1,1.17.79,3.68,3.68,0,0,1,.8,1.18,3.57,3.57,0,0,1,.29,1.42,3.65,3.65,0,0,1-.29,1.43,3.47,3.47,0,0,1-.8,1.18,4.06,4.06,0,0,1-1.17.78,3.61,3.61,0,0,1-1.42.29h-6.5a.85.85,0,0,1-.87-.84.86.86,0,0,1,.25-.6.84.84,0,0,1,.62-.24h6.5a2,2,0,0,0,2-2,2,2,0,0,0-2-2h-3.68a3.67,3.67,0,0,1-1.44-.29,3.71,3.71,0,0,1-2-2,3.67,3.67,0,0,1-.29-1.44,3.61,3.61,0,0,1,.29-1.42,4.09,4.09,0,0,1,.79-1.17,3.58,3.58,0,0,1,1.17-.8,3.67,3.67,0,0,1,1.44-.29H110a.85.85,0,0,1,.62.25.78.78,0,0,1,.25.59.84.84,0,0,1-.87.87h-6.49a1.92,1.92,0,0,0-1.4.57"/><path class="cls-1" d="M72.2,10.32V28.69s0,0,0,.08a.13.13,0,0,1,0,.06.24.24,0,0,1,0,.08s0,0,0,.05l0,.08,0,0s0,.05-.06.08l0,0-.08.06,0,0,0,0-.06,0,0,0-.09,0h-.32l-.11,0h0l-.1,0,0,0L71,29.2l0,0-.06-.07,0,0h0L61.08,12.88V28.67a.72.72,0,1,1-1.43,0V10.3a.22.22,0,0,1,0-.08v-.06l0-.08,0-.05s0,0,0-.08,0,0,0,0l.07-.08,0,0,.08-.06,0,0h0l.07,0h0l.1,0h.18l.12,0h0l.11,0h0l.11.06h0l.09.07,0,0,.06.07,0,0v0l9.8,16.16V10.32a.72.72,0,1,1,1.43,0"/><path class="cls-1" d="M70.9,10.32v17.3c0,.32,0,.66,0,1,0,.15,0,0,0,0s.22-.38.28-.42.83-.14.79.22c0-.13-.29-.48-.35-.58l-5-8.19-4.48-7.4a1.31,1.31,0,0,0-2.42.66v15a2.66,2.66,0,0,0,0,.69.69.69,0,0,0,1.16,0,5.84,5.84,0,0,0,0-1.67v-3.1c0-4.42,0-8.84,0-13.26,0-.52-.18.24-.31.29-.49.14-.32,0-.68-.11-.13,0-.13-.23,0,0,.73,1.52,1.79,3,2.67,4.4l7,11.62a1.31,1.31,0,0,0,2.42-.66V11a2.57,2.57,0,0,0,0-.48s0-.1,0-.14v-.05c0-.4-.37-.29-1.12.32.33,1.64,2.83.95,2.5-.69a2,2,0,0,0-3.74-.58,3.17,3.17,0,0,0-.24,1.52v15.2l2.42-.65-7-11.53c-.92-1.52-1.78-3.12-2.78-4.59a2,2,0,0,0-3.7.44,17.26,17.26,0,0,0-.07,4.31v8.78c0,1.88-.09,3.79,0,5.67a2,2,0,0,0,3.17,1.76,2.62,2.62,0,0,0,.85-2.42v-15L60,13.53l9.51,15.7a2.38,2.38,0,0,0,2,1.46,2.06,2.06,0,0,0,2-2c.17-2.84,0-5.74,0-8.58V10.32a1.3,1.3,0,0,0-2.6,0"/><path class="cls-1" d="M60.36,29.45a.77.77,0,0,1-.77-.78V10.3a.19.19,0,0,1,0-.08v0a.09.09,0,0,1,0,0,.24.24,0,0,1,0-.08v0s0,0,0,0l.05-.09,0,0,.08-.09,0,0,.08-.07,0,0h0l0,0h0l0,0,.11,0h.34l.13,0h0l.11.06,0,.06,0-.05.09.08,0,0,.07.08h0l0,0v0l9.69,16V10.32A.78.78,0,0,1,72,9.77a.76.76,0,0,1,.23.55V28.69s0,.06,0,.09v0a.06.06,0,0,0,0,0,.24.24,0,0,0,0,.08v0s0,0,0,0a.79.79,0,0,1,0,.09l0,0a.27.27,0,0,1-.07.08l0,0-.08.07h0l0,0,0,0,0,0h0l0,0-.1,0h-.18l-.14,0h0l-.11,0h0l-.11-.05,0,0L71,29.24l0,0-.06-.08h0l0,0h0l-9.69-16V28.67a.77.77,0,0,1-.77.78m0-19.79h-.15l-.1,0h0l0,0a.05.05,0,0,0,0,0H60l-.07.06,0,0-.06.08h0v0l0,.08v0s0,.05,0,.08V28.67a.66.66,0,0,0,1.32,0v-16L70.92,29h0l0,0h0l.06.06,0,0a.27.27,0,0,0,.08.07h0l.08.05h0l.1,0h.28a.29.29,0,0,0,.1,0h0l0,0h0v0h0l.07-.06h0l.06-.07s0,0,0,0v0l0-.07a0,0,0,0,1,0,0v0l0-.07v-.06a.17.17,0,0,0,0-.07h0V10.32A.64.64,0,0,0,72,9.85a.66.66,0,0,0-1.12.47v16L60.92,10v0h0l-.06-.07,0-.06,0,0-.08-.06-.11-.06V9.66l0,.05a.19.19,0,0,0-.1,0v0h-.11"/><path class="cls-1" d="M60.71,28.2c.27.05.06.7.18.32a2,2,0,0,0,0-.49V11c0-.17,0-.35,0-.52s0-.09,0-.08c-.23.07-.22.73-.75.44l-.6-1.46,0,.05c-.48,1.46,1.59,2.17,2.37,1,0,0,0,0,0,0l-2,.26c.29.24-.06-.22,0,0a3.79,3.79,0,0,0,.2.34c.34.54.67,1.09,1,1.64l3.33,5.5,5.14,8.48A1.31,1.31,0,0,0,72,25.91V11c0-.11.07-.49,0-.58s-.93-.19-1.05.06a5.59,5.59,0,0,0,0,1.78V15.5c0,4.32-.2,8.69,0,13,0,.29-.13.24,0,0-.08.12.38-.34.2-.26.45-.19.34,0,.66.06.15,0,.13.25,0,0a38.8,38.8,0,0,0-2.54-4.18l-7.09-11.7a1.3,1.3,0,0,0-2.41.66V28a2.57,2.57,0,0,0,0,.48c.09.46-.33-.16.18-.26-1.64.33-1,2.83.69,2.5,1.81-.37,1.72-2,1.72-3.45V13.09L60,13.74l7,11.61c.88,1.44,1.69,3,2.64,4.35a2.09,2.09,0,0,0,3.77-.41,15.47,15.47,0,0,0,.1-4.19V16.57c0-2,.08-4.06,0-6.07a2.12,2.12,0,0,0-3-2C69.51,9,69.42,10,69.42,11v14.9l2.41-.66L62.94,10.58a6.86,6.86,0,0,0-1.23-1.82,1.32,1.32,0,0,0-2,.27s0,0,0,0l2.37,1s0,0,0-.05a1.31,1.31,0,0,0-.59-1.47,2.09,2.09,0,0,0-3.14,1.66c-.09,1,0,2,0,3V26.3c0,1.61-.39,4,1.73,4.4,1.63.33,2.32-2.17.69-2.5"/><path class="cls-1" d="M60.37,8.36c-2.22.12-2,2.36-2,3.94V27.83c0,.28,0,.56,0,.83a2,2,0,0,0,2.42,1.9c1.55-.4,1.49-1.88,1.49-3.14V12.67l-2.42.66,5.37,8.85,3.46,5.73c.31.5.61,1,.93,1.52l.14.24c.42.65.08.09,0,0a3.46,3.46,0,0,0,.49.52,2,2,0,0,0,3.11-1.55L72.14,30h.06c1.32-.15,1.92-2.26.35-2.55h-.06l1,1.25V12.23c0-.63,0-1.28,0-1.91a2,2,0,0,0-3.91,0c-.18,2.51,0,5.1,0,7.62v8.34L72,25.67q-4.47-7.4-9-14.77c-.26-.44-.52-.88-.79-1.31l-.15-.25c-.07-.1-.15-.18-.22-.28.31.43.07.08-.09-.12l.33,1.26,0,0c.49-1.24-1.32-2.16-2.17-1.27l0,0h1.84a3.9,3.9,0,0,0-.46-.34l.65,1.13V9.66c.13-1.58-2-1.59-2.55-.35l0,0,1.6-.9-.11,0,.91.9V9.27c-.18-1.26-2.28-1.21-2.5,0a.13.13,0,0,0,0,.06l1.25-.95-.11,0c-1.66-.16-1.65,2.43,0,2.6h.11a1.31,1.31,0,0,0,1.25-1s0,0,0-.06h-2.5V10a1.27,1.27,0,0,0,.9.91l.11,0a1.33,1.33,0,0,0,1.59-.91l0-.05-2.55-.34v.06A1.29,1.29,0,0,0,60,10.84l-.08-.08a1.33,1.33,0,0,0,1.84,0l0,0L59.6,9.46s0,0,0,0a1.3,1.3,0,0,0,.33,1.27c-.48-.59.4.68-.11-.14a.18.18,0,0,1,.05.07l.25.42,1.06,1.73,3.42,5.65L69.71,27a1.31,1.31,0,0,0,2.42-.66V11.51a5.46,5.46,0,0,0,0-1C72,10,71,9.84,70.85,10.41a8.29,8.29,0,0,0,0,2.28v16a1.31,1.31,0,0,0,1,1.25h0l.35-2.54h-.06a1.36,1.36,0,0,0-1.3,1.3c0-.22.23-.55.35-.58.5-.14.37-.06.76.12s0,.24-.1-.12c0,.13.25.36.16.2-.54-1-1.15-1.9-1.72-2.84q-3.23-5.32-6.44-10.64L62.14,12a1.31,1.31,0,0,0-2.42.65V28.18a1.27,1.27,0,0,0,0,.39,2.15,2.15,0,0,0,1.28.1c.08-.09,0-.58,0-.69V14.28c0-1.2,0-2.4,0-3.6,0-.4.13-.46,0-.16a.62.62,0,0,1-.6.44c1.66-.09,1.67-2.68,0-2.6"/></svg>